# xmcd
# 
# Track frame offsets:
#     150
#     22401
#     36094
#     55473
#     69355
#     81230
#     88600
#     104519
#     124647
#     130700
#     143639
#     157950
#     181324
#     199620
# 
# Disc length: 2826
# 
# Revision: 1
# Processed by: cddbd v1.5.2PL0 Copyright (c) Steve Scherf et al.
# Submitted via: fre:ac v1.0.31
# 
DISCID=bd0b080e
DTITLE=BAZRA - BAZRA
DYEAR=2005
DGENRE=Rock
TTITLE0=蒼い陽
TTITLE1=明日
TTITLE2=夜に吠える
TTITLE3=セクシー
TTITLE4=わがまま放題
TTITLE5=JamRa#3
TTITLE6=花とダンス
TTITLE7=足跡
TTITLE8=JamRa#4
TTITLE9=まわる
TTITLE10=ザ・我らの
TTITLE11=僕ら
TTITLE12=はね
TTITLE13=カマキリ
EXTD=
EXTT0=
EXTT1=
EXTT2=
EXTT3=
EXTT4=
EXTT5=
EXTT6=
EXTT7=
EXTT8=
EXTT9=
EXTT10=
EXTT11=
EXTT12=
EXTT13=
PLAYORDER=
